<svg width="22" height="21" viewBox="0 0 22 21" fill="none" xmlns="http://www.w3.org/2000/svg">
<path d="M21.074 8.032C20.9666 7.76969 20.7868 7.54339 20.5555 7.37957C20.3242 7.21576 20.0511 7.12121 19.768 7.107L14.307 6.307L11.865 1.363C11.7638 1.09798 11.5892 0.867282 11.3616 0.69796C11.134 0.528638 10.8629 0.427707 10.58 0.406998C10.2972 0.427623 10.0261 0.528407 9.79855 0.697543C9.57097 0.866678 9.39629 1.09716 9.29499 1.362L6.85299 6.307L1.39199 7.107C1.1087 7.12138 0.835377 7.21623 0.604066 7.38041C0.372756 7.5446 0.193041 7.77132 0.0859893 8.034C0.018762 8.30908 0.0312073 8.59762 0.121871 8.86589C0.212535 9.13416 0.377673 9.37109 0.597989 9.549L4.54999 13.401L3.61699 18.84C3.55897 19.0697 3.55366 19.3096 3.60146 19.5416C3.64926 19.7737 3.74892 19.9919 3.89299 20.18C4.00671 20.3128 4.14849 20.4188 4.3081 20.4902C4.4677 20.5616 4.64117 20.5967 4.81599 20.593C5.12497 20.5852 5.42738 20.5021 5.69699 20.351L10.581 17.783L15.465 20.351C15.7346 20.5021 16.037 20.5852 16.346 20.593C16.5208 20.5967 16.6943 20.5616 16.8539 20.4902C17.0135 20.4188 17.1553 20.3128 17.269 20.18C17.4131 19.9919 17.5128 19.7737 17.5606 19.5416C17.6084 19.3096 17.6031 19.0697 17.545 18.84L16.612 13.401L20.563 9.549C20.7835 9.37081 20.9487 9.13349 21.0392 8.86483C21.1297 8.59617 21.1417 8.30728 21.074 8.032Z" fill="#FFD400"/>
<path d="M21.074 8.032C20.967 7.76932 20.7872 7.5426 20.5559 7.37841C20.3246 7.21423 20.0513 7.11938 19.768 7.105L14.307 6.307L11.865 1.359C11.7633 1.09472 11.5884 0.864868 11.3608 0.69629C11.1333 0.527711 10.8625 0.427372 10.58 0.406998V17.782L15.464 20.35C15.7337 20.5009 16.0361 20.5839 16.345 20.592C16.5199 20.5957 16.6933 20.5606 16.8529 20.4892C17.0125 20.4178 17.1543 20.3118 17.268 20.179C17.4121 19.9909 17.5117 19.7727 17.5595 19.5406C17.6073 19.3086 17.602 19.0687 17.544 18.839L16.611 13.4L20.562 9.548C20.7825 9.36981 20.9477 9.13249 21.0382 8.86383C21.1287 8.59517 21.1408 8.30628 21.073 8.031L21.074 8.032Z" fill="#FF9F04"/>
</svg>
