<svg width="17" height="17" viewBox="0 0 17 17" fill="none" xmlns="http://www.w3.org/2000/svg">
<path d="M16.2691 15.307L11.6811 10.676C12.7208 9.36556 13.2186 7.70645 13.0721 6.04009C12.9257 4.37373 12.1461 2.82689 10.8938 1.71788C9.64146 0.608869 8.0117 0.0220493 6.33986 0.0781786C4.66802 0.134308 3.08129 0.829116 1.90618 2.01963C0.731071 3.21013 0.0569799 4.80578 0.022621 6.47821C-0.0117379 8.15063 0.59625 9.77262 1.72147 11.0104C2.84669 12.2482 4.40355 13.0075 6.07167 13.1323C7.7398 13.257 9.39229 12.7376 10.6891 11.681L15.2471 16.281C15.3109 16.3485 15.3875 16.4028 15.4724 16.4407C15.5573 16.4785 15.6488 16.4993 15.7417 16.5017C15.8346 16.5041 15.9271 16.4881 16.0138 16.4547C16.1005 16.4213 16.1798 16.3711 16.2471 16.307C16.3817 16.1768 16.4595 15.9988 16.4637 15.8115C16.4678 15.6243 16.3979 15.443 16.2691 15.307ZM6.54409 11.737C5.34961 11.7369 4.19211 11.3226 3.26882 10.5648C2.34553 9.80696 1.71358 8.75243 1.48064 7.58088C1.24769 6.40933 1.42817 5.19326 1.99132 4.13986C2.55447 3.08646 3.46545 2.26092 4.56904 1.80388C5.67263 1.34685 6.90054 1.28661 8.04357 1.63342C9.18659 1.98024 10.174 2.71265 10.8376 3.70587C11.5011 4.69909 11.7998 5.89165 11.6826 7.08038C11.5655 8.2691 11.0398 9.38043 10.1951 10.225C9.71683 10.7054 9.14811 11.0863 8.5218 11.3457C7.89548 11.605 7.22398 11.7377 6.54609 11.736L6.54409 11.737Z" fill="#676767"/>
</svg>
