<svg width="17" height="20" viewBox="0 0 17 20" fill="none" xmlns="http://www.w3.org/2000/svg">
<path d="M12.956 4.673C12.9647 5.27077 12.8516 5.86406 12.6234 6.41664C12.3953 6.96923 12.0569 7.46953 11.629 7.887C11.2119 8.31584 10.7118 8.65513 10.1592 8.88415C9.60663 9.11317 9.01312 9.22711 8.41499 9.219C7.81602 9.22779 7.22156 9.11419 6.66805 8.88515C6.11453 8.65611 5.61361 8.31645 5.19598 7.887C4.76715 7.46996 4.42786 6.96985 4.19884 6.41724C3.96982 5.86463 3.85588 5.27113 3.86399 4.673C3.85588 4.07487 3.96982 3.48136 4.19884 2.92876C4.42786 2.37615 4.76715 1.87604 5.19598 1.459C5.6128 1.03041 6.11258 0.691256 6.66483 0.462243C7.21707 0.23323 7.81019 0.119161 8.40799 0.126999C9.00729 0.117932 9.60213 0.231403 10.156 0.460452C10.7099 0.689502 11.2111 1.0293 11.629 1.459C12.0569 1.87647 12.3953 2.37677 12.6234 2.92935C12.8516 3.48194 12.9647 4.07523 12.956 4.673Z" fill="#00C7CE"/>
<path d="M16.403 15.755C16.4225 16.1934 16.3497 16.6309 16.1894 17.0394C16.029 17.4478 15.7846 17.818 15.472 18.126C14.819 18.7232 13.9562 19.0378 13.072 19.001H3.98501C3.10083 19.0379 2.23799 18.7233 1.58501 18.126C1.27281 17.8178 1.02879 17.4476 0.868757 17.0391C0.708725 16.6307 0.636247 16.1932 0.656015 15.755C0.656015 15.376 0.669015 15.001 0.694015 14.64C0.723529 14.2399 0.774603 13.8416 0.847015 13.447C0.918305 13.041 1.01618 12.6401 1.14001 12.247C1.26546 11.858 1.43066 11.4831 1.63301 11.128C1.83255 10.7708 2.08282 10.4444 2.37601 10.159C2.68522 9.8683 3.04794 9.64041 3.44402 9.48798C3.8787 9.32039 4.34117 9.23659 4.80701 9.24099C5.07855 9.27006 5.33537 9.37899 5.54501 9.55399C5.77001 9.70099 6.02901 9.86799 6.31501 10.054C6.62882 10.2413 6.96474 10.3888 7.31501 10.493C7.67065 10.6096 8.04099 10.6752 8.41501 10.688H8.53602C8.94998 10.6854 9.36097 10.6179 9.75401 10.488C10.1043 10.3837 10.4402 10.2363 10.754 10.049C11.043 9.86399 11.302 9.69699 11.524 9.54899C11.7339 9.37375 11.9911 9.2648 12.263 9.23599C12.7289 9.23164 13.1913 9.31545 13.626 9.48299C14.0221 9.63549 14.3848 9.86335 14.694 10.154C14.9874 10.4392 15.2377 10.7657 15.437 11.123C15.6394 11.4777 15.8046 11.8523 15.93 12.241C16.0539 12.6341 16.1517 13.035 16.223 13.441C16.2952 13.8353 16.3463 14.2332 16.376 14.633C16.401 14.992 16.414 15.367 16.414 15.748L16.403 15.755Z" fill="#00C7CE"/>
<path d="M8.41504 9.21799V0.126991C9.01317 0.118881 9.60666 0.232817 10.1593 0.461838C10.7119 0.690859 11.212 1.03015 11.629 1.45899C12.0579 1.87603 12.3972 2.37614 12.6262 2.92875C12.8552 3.48136 12.9691 4.07486 12.961 4.67299C12.9686 5.27141 12.8541 5.86509 12.6243 6.41771C12.3946 6.97034 12.0546 7.47029 11.625 7.88699C11.2084 8.31516 10.7089 8.65398 10.157 8.88281C9.60512 9.11164 9.01243 9.22569 8.41504 9.21799Z" fill="#056A7A"/>
<path d="M16.402 15.754C16.4215 16.1924 16.3487 16.6299 16.1883 17.0384C16.028 17.4468 15.7836 17.817 15.471 18.125C14.818 18.7222 13.9552 19.0368 13.071 19H8.40601V10.686H8.52701C8.94097 10.6834 9.35196 10.6159 9.74501 10.486C10.0953 10.3818 10.4312 10.2343 10.745 10.047C11.034 9.86199 11.293 9.69499 11.515 9.54699C11.7249 9.37175 11.9821 9.26282 12.254 9.234C12.7199 9.22965 13.1823 9.31345 13.617 9.481C14.0131 9.63349 14.3758 9.86137 14.685 10.152C14.9784 10.4373 15.2286 10.7637 15.428 11.121C15.6304 11.4757 15.7956 11.8503 15.921 12.239C16.0449 12.6321 16.1428 13.033 16.214 13.439C16.2862 13.8333 16.3373 14.2312 16.367 14.631C16.389 14.999 16.402 15.374 16.402 15.754Z" fill="#056A7A"/>
</svg>
